<svg width="100" height="100" viewBox="0 0 100 100" fill="none" xmlns="http://www.w3.org/2000/svg">
<path d="M2.09802 2.09802C2.76139 1.43298 3.54944 0.905335 4.41704 0.545322C5.28464 0.185308 6.21474 0 7.15406 0C8.09339 0 9.02349 0.185308 9.89109 0.545322C10.7587 0.905335 11.5467 1.43298 12.2101 2.09802L50.0019 39.9041L87.7936 2.09802C88.4576 1.43405 89.2459 0.907363 90.1134 0.548025C90.9809 0.188688 91.9107 0.00373895 92.8497 0.00373895C93.7887 0.00373895 94.7185 0.188688 95.586 0.548025C96.4535 0.907363 97.2418 1.43405 97.9057 2.09802C98.5697 2.76199 99.0964 3.55023 99.4557 4.41775C99.8151 5.28527 100 6.21507 100 7.15406C100 8.09306 99.8151 9.02286 99.4557 9.89038C99.0964 10.7579 98.5697 11.5461 97.9057 12.2101L60.0997 50.0019L97.9057 87.7936C98.5697 88.4576 99.0964 89.2459 99.4557 90.1134C99.8151 90.9809 100 91.9107 100 92.8497C100 93.7887 99.8151 94.7185 99.4557 95.586C99.0964 96.4535 98.5697 97.2418 97.9057 97.9057C97.2418 98.5697 96.4535 99.0964 95.586 99.4557C94.7185 99.8151 93.7887 100 92.8497 100C91.9107 100 90.9809 99.8151 90.1134 99.4557C89.2459 99.0964 88.4576 98.5697 87.7936 97.9057L50.0019 60.0997L12.2101 97.9057C11.5461 98.5697 10.7579 99.0964 9.89038 99.4557C9.02286 99.8151 8.09306 100 7.15406 100C6.21507 100 5.28527 99.8151 4.41775 99.4557C3.55023 99.0964 2.76199 98.5697 2.09802 97.9057C1.43405 97.2418 0.907363 96.4535 0.548025 95.586C0.188688 94.7185 0.00373895 93.7887 0.00373895 92.8497C0.00373895 91.9107 0.188688 90.9809 0.548025 90.1134C0.907363 89.2459 1.43405 88.4576 2.09802 87.7936L39.9041 50.0019L2.09802 12.2101C1.43298 11.5467 0.905335 10.7587 0.545322 9.89109C0.185308 9.02349 0 8.09339 0 7.15406C0 6.21474 0.185308 5.28464 0.545322 4.41704C0.905335 3.54944 1.43298 2.76139 2.09802 2.09802Z" fill="black"/>
</svg>
