<svg width="300" height="300" viewBox="0 0 300 300" fill="none" xmlns="http://www.w3.org/2000/svg">
<g clip-path="url(#clip0_19_2)">
<path d="M206.25 112.5C206.25 127.418 200.324 141.726 189.775 152.275C179.226 162.824 164.918 168.75 150 168.75C135.082 168.75 120.774 162.824 110.225 152.275C99.6763 141.726 93.75 127.418 93.75 112.5C93.75 97.5816 99.6763 83.2742 110.225 72.7252C120.774 62.1763 135.082 56.25 150 56.25C164.918 56.25 179.226 62.1763 189.775 72.7252C200.324 83.2742 206.25 97.5816 206.25 112.5Z" fill="#4A95E5"/>
<path fill-rule="evenodd" clip-rule="evenodd" d="M0 150C0 110.218 15.8035 72.0644 43.934 43.934C72.0644 15.8035 110.218 0 150 0C189.782 0 227.936 15.8035 256.066 43.934C284.196 72.0644 300 110.218 300 150C300 189.782 284.196 227.936 256.066 256.066C227.936 284.196 189.782 300 150 300C110.218 300 72.0644 284.196 43.934 256.066C15.8035 227.936 0 189.782 0 150ZM150 18.75C125.283 18.7513 101.069 25.7318 80.145 38.888C59.2207 52.0442 42.4366 70.8414 31.7243 93.1161C21.0121 115.391 16.8072 140.238 19.5937 164.797C22.3802 189.356 32.0447 212.629 47.475 231.937C60.7875 210.487 90.0938 187.5 150 187.5C209.906 187.5 239.194 210.469 252.525 231.937C267.955 212.629 277.62 189.356 280.406 164.797C283.193 140.238 278.988 115.391 268.276 93.1161C257.563 70.8414 240.779 52.0442 219.855 38.888C198.931 25.7318 174.717 18.7513 150 18.75Z" fill="#4A95E5"/>
</g>
<defs>
<clipPath id="clip0_19_2">
<rect width="300" height="300" fill="white"/>
</clipPath>
</defs>
</svg>
