<svg width="200" height="200" viewBox="0 0 200 200" fill="none" xmlns="http://www.w3.org/2000/svg">
<path d="M31.25 12.5C27.9348 12.5 24.7554 13.817 22.4112 16.1612C20.067 18.5054 18.75 21.6848 18.75 25V37.5C18.75 40.8152 20.067 43.9946 22.4112 46.3388C24.7554 48.683 27.9348 50 31.25 50H37.5V162.5C37.5 169.13 40.1339 175.489 44.8223 180.178C49.5107 184.866 55.8696 187.5 62.5 187.5H137.5C144.13 187.5 150.489 184.866 155.178 180.178C159.866 175.489 162.5 169.13 162.5 162.5V50H168.75C172.065 50 175.245 48.683 177.589 46.3388C179.933 43.9946 181.25 40.8152 181.25 37.5V25C181.25 21.6848 179.933 18.5054 177.589 16.1612C175.245 13.817 172.065 12.5 168.75 12.5H125C125 9.18479 123.683 6.00537 121.339 3.66117C118.995 1.31696 115.815 0 112.5 0L87.5 0C84.1848 0 81.0054 1.31696 78.6612 3.66117C76.317 6.00537 75 9.18479 75 12.5H31.25ZM68.75 62.5C70.4076 62.5 71.9973 63.1585 73.1694 64.3306C74.3415 65.5027 75 67.0924 75 68.75V156.25C75 157.908 74.3415 159.497 73.1694 160.669C71.9973 161.842 70.4076 162.5 68.75 162.5C67.0924 162.5 65.5027 161.842 64.3306 160.669C63.1585 159.497 62.5 157.908 62.5 156.25V68.75C62.5 67.0924 63.1585 65.5027 64.3306 64.3306C65.5027 63.1585 67.0924 62.5 68.75 62.5ZM100 62.5C101.658 62.5 103.247 63.1585 104.419 64.3306C105.592 65.5027 106.25 67.0924 106.25 68.75V156.25C106.25 157.908 105.592 159.497 104.419 160.669C103.247 161.842 101.658 162.5 100 162.5C98.3424 162.5 96.7527 161.842 95.5806 160.669C94.4085 159.497 93.75 157.908 93.75 156.25V68.75C93.75 67.0924 94.4085 65.5027 95.5806 64.3306C96.7527 63.1585 98.3424 62.5 100 62.5ZM137.5 68.75V156.25C137.5 157.908 136.842 159.497 135.669 160.669C134.497 161.842 132.908 162.5 131.25 162.5C129.592 162.5 128.003 161.842 126.831 160.669C125.658 159.497 125 157.908 125 156.25V68.75C125 67.0924 125.658 65.5027 126.831 64.3306C128.003 63.1585 129.592 62.5 131.25 62.5C132.908 62.5 134.497 63.1585 135.669 64.3306C136.842 65.5027 137.5 67.0924 137.5 68.75Z" fill="#4A95E5"/>
</svg>
