<svg width="200" height="200" viewBox="0 0 200 200" fill="none" xmlns="http://www.w3.org/2000/svg">
<path fill-rule="evenodd" clip-rule="evenodd" d="M90.125 10C96.125 3.6875 100 0 100 0C101.367 4.53333 102.913 8.85833 104.638 12.975C114.788 37.3 130.55 54.85 144.6 70.475C160.975 88.7 175 104.313 175 125C175 144.891 167.098 163.968 153.033 178.033C138.968 192.098 119.891 200 100 200C80.1088 200 61.0322 192.098 46.967 178.033C32.9018 163.968 25 144.891 25 125C25 83.35 69.75 31.4625 90.125 10ZM95.2875 22.7625C87.2569 31.4463 79.6281 40.4933 72.425 49.875C63.35 61.75 54.475 74.975 47.925 88.25C41.3 101.662 37.5 114.225 37.5 125C37.5 125 68.75 143.75 100 131.25C131.25 118.75 162.5 125 162.5 125C162.5 109.988 152.55 98.0375 135.238 78.75L134.862 78.35C121.875 63.875 106.25 46.5125 95.2875 22.7625Z" fill="#4A95E5"/>
<path fill-rule="evenodd" clip-rule="evenodd" d="M56.9125 97.2C67.1625 76.6875 78.375 62.7875 83.075 58.075L91.925 66.925C88.3 70.55 77.825 83.3125 68.0875 102.8L56.9125 97.2Z" fill="#4A95E5"/>
</svg>
