<svg width="200" height="200" viewBox="0 0 200 200" fill="none" xmlns="http://www.w3.org/2000/svg">
<path d="M100 200C119.891 200 138.968 192.098 153.033 178.033C167.098 163.968 175 144.891 175 125C175 104.313 160.975 88.7 144.6 70.475C128.175 52.2 109.375 31.2875 100 0C100 0 25 71.075 25 125C25 144.891 32.9018 163.968 46.967 178.033C61.0322 192.098 80.1088 200 100 200ZM83.075 58.075L91.925 66.925C88.3 70.55 77.825 83.3125 68.0875 102.8L56.9125 97.2C67.1625 76.6875 78.375 62.7875 83.075 58.075Z" fill="#4A95E5"/>
</svg>
