<svg width="100" height="100" viewBox="0 0 100 100" fill="none" xmlns="http://www.w3.org/2000/svg">
<circle cx="50" cy="50" r="50" fill="#4A95E5"/>
<path d="M46.8779 26.5C48.1082 26.5 49.2869 26.992 50.1543 27.8643C51.0212 28.7362 51.5068 29.9171 51.5068 31.1465C51.5068 32.3759 51.0213 33.5568 50.1543 34.4287H50.1533L39.2812 45.3574H71.875C73.1043 45.3574 74.2818 45.8492 75.1484 46.7207C76.0147 47.5919 76.5 48.7716 76.5 50C76.5 51.2284 76.0147 52.4081 75.1484 53.2793C74.2818 54.1508 73.1043 54.6426 71.875 54.6426H39.2812L50.1533 65.5713H50.1543L50.3105 65.7373C50.6664 66.1322 50.9523 66.5856 51.1553 67.0781C51.3872 67.6412 51.5068 68.2446 51.5068 68.8535C51.5068 69.4625 51.3872 70.0658 51.1553 70.6289C50.9234 71.1919 50.5835 71.704 50.1543 72.1357C49.7249 72.5676 49.2145 72.9113 48.6523 73.1455C48.1605 73.3504 47.6374 73.4678 47.1064 73.4941L46.8779 73.5C46.2692 73.5 45.6665 73.3795 45.1045 73.1455C44.5423 72.9113 44.032 72.5676 43.6025 72.1357L24.8564 53.2832L24.8555 53.2842C24.4252 52.8526 24.084 52.3397 23.8516 51.7764C23.6192 51.2131 23.5 50.6094 23.5 50L23.5059 49.7715C23.5319 49.2402 23.6483 48.7164 23.8516 48.2236C24.084 47.6602 24.4252 47.1474 24.8555 46.7158H24.8564L43.6025 27.8643C44.4699 26.992 45.6477 26.5001 46.8779 26.5Z" fill="white" stroke="white" stroke-width="3"/>
</svg>
