<svg width="201" height="315" viewBox="0 0 201 315" fill="none" xmlns="http://www.w3.org/2000/svg">
<g filter="url(#filter0_f_2_17)">
<ellipse cx="100" cy="300" rx="45" ry="10" fill="#4F4F4F" fill-opacity="0.52"/>
</g>
<circle cx="100" cy="100" r="50" fill="white"/>
<path d="M100.475 298.237C104.79 298.237 108.828 297.104 112.625 294.813C116.161 292.681 118.865 289.829 120.767 286.228L121.136 285.498L192.22 134.347L192.221 134.346C196.351 125.584 198.475 114.248 198.475 100.237C198.475 73.1639 188.92 50.1047 169.764 30.9482C150.607 11.7918 127.548 2.2373 100.475 2.2373C73.4012 2.2373 50.342 11.7918 31.1855 30.9482C12.0291 50.1047 2.47461 73.1639 2.47461 100.237C2.47461 114.247 4.59808 125.583 8.72852 134.345L80.0176 285.517L80.0234 285.529L80.0293 285.543C81.8126 289.466 84.5632 292.545 88.3242 294.813C92.1212 297.104 96.1595 298.237 100.475 298.237ZM100.475 152.237C86.1417 152.237 73.8494 147.143 63.709 137.003C53.5685 126.862 48.4746 114.57 48.4746 100.237C48.4746 85.9044 53.5685 73.6121 63.709 63.4717C73.8494 53.3312 86.1417 48.2373 100.475 48.2373C114.807 48.2373 127.1 53.3312 137.24 63.4717C147.381 73.6121 152.475 85.9044 152.475 100.237C152.475 114.57 147.381 126.862 137.24 137.003C127.1 147.143 114.807 152.237 100.475 152.237Z" fill="#E54A4A" stroke="#702D33" stroke-width="4"/>
<defs>
<filter id="filter0_f_2_17" x="50" y="285" width="100" height="30" filterUnits="userSpaceOnUse" color-interpolation-filters="sRGB">
<feFlood flood-opacity="0" result="BackgroundImageFix"/>
<feBlend mode="normal" in="SourceGraphic" in2="BackgroundImageFix" result="shape"/>
<feGaussianBlur stdDeviation="2.5" result="effect1_foregroundBlur_2_17"/>
</filter>
</defs>
</svg>
