<svg width="100" height="100" viewBox="0 0 100 100" fill="none" xmlns="http://www.w3.org/2000/svg">
<circle cx="50" cy="50" r="50" fill="#4A95E5"/>
<path d="M53.1221 26.5C54.3523 26.5001 55.5301 26.992 56.3975 27.8643L75.1436 46.7158H75.1445C75.5748 47.1474 75.916 47.6603 76.1484 48.2236C76.3808 48.7869 76.5 49.3906 76.5 50C76.5 50.6094 76.3808 51.2131 76.1484 51.7764C75.916 52.3397 75.5748 52.8526 75.1445 53.2842L75.1436 53.2832L56.3975 72.1357C55.5301 73.008 54.3523 73.4999 53.1221 73.5C51.8918 73.5 50.7131 73.008 49.8457 72.1357C48.9788 71.2638 48.4932 70.0829 48.4932 68.8535C48.4932 67.6241 48.9787 66.4432 49.8457 65.5713H49.8467L60.7188 54.6426H28.125C26.8957 54.6426 25.7182 54.1508 24.8516 53.2793C23.9853 52.4081 23.5 51.2284 23.5 50L23.5059 49.7705C23.5623 48.6254 24.0394 47.5375 24.8516 46.7207C25.7182 45.8492 26.8957 45.3574 28.125 45.3574H60.7188L49.8467 34.4287H49.8457C48.9787 33.5568 48.4932 32.3759 48.4932 31.1465C48.4932 29.9171 48.9788 28.7362 49.8457 27.8643C50.7131 26.992 51.8918 26.5 53.1221 26.5Z" fill="white" stroke="white" stroke-width="3"/>
</svg>
