<svg xmlns="http://www.w3.org/2000/svg" viewBox="0 0 64 64" id="wc">
  <path fill="#78b9eb" d="M45,5l-.17,4H19.17L19,5a2.006,2.006,0,0,1,2-2H43A2.006,2.006,0,0,1,45,5Z"></path>
  <rect width="6" height="4" x="29" y="28" fill="#78b9eb"></rect>
  <path fill="#78b9eb" d="M48 34v2H16V34a2.006 2.006 0 0 1 2-2H46A2.006 2.006 0 0 1 48 34zM46 40v5a10.008 10.008 0 0 1-8.23 9.84A9.324 9.324 0 0 1 36 55H28a9.324 9.324 0 0 1-1.77-.16A10.008 10.008 0 0 1 18 45V40z"></path>
  <path fill="#78b9eb" d="M39,61H25l1.23-6.16A9.324,9.324,0,0,0,28,55h8a9.324,9.324,0,0,0,1.77-.16Z"></path>
  <path fill="#006df0" d="M49,34a3.009,3.009,0,0,0-3-3H36V29h8a1,1,0,0,0,1-.96L46,5a3.009,3.009,0,0,0-3-3H21a3.018,3.018,0,0,0-3,3.04l1,23A1,1,0,0,0,20,29h8v2H18a3.009,3.009,0,0,0-3,3v2a1,1,0,0,0,.3.71A2.947,2.947,0,0,0,15,38a3.01,3.01,0,0,0,2,2.82V45a11.008,11.008,0,0,0,8.06,10.59L24.02,60.8a.99.99,0,0,0,.21.83A.971.971,0,0,0,25,62H39a.971.971,0,0,0,.77-.37.99.99,0,0,0,.21-.83l-1.04-5.21A11.008,11.008,0,0,0,47,45V40.82A3.01,3.01,0,0,0,49,38a2.947,2.947,0,0,0-.3-1.29A1,1,0,0,0,49,36ZM20,5a1,1,0,0,1,1-1H43a1,1,0,0,1,1,.96L43.87,8H20.13Zm.96,22-.74-17H43.78l-.74,17ZM34,29v2H30V29ZM26.22,60l.81-4.05c.32.03.64.05.97.05h8c.33,0,.65-.02.97-.05L37.78,60ZM45,45a9.014,9.014,0,0,1-9,9H28a9.014,9.014,0,0,1-9-9V41H45Zm1-6H18a1,1,0,0,1,0-2H46a1,1,0,0,1,0,2Zm1-4H17V34a1,1,0,0,1,1-1H46a1,1,0,0,1,1,1Z"></path>
</svg>
